<?xml version="1.0" standalone="no"?>
<!DOCTYPE svg PUBLIC "-//W3C//DTD SVG 20010904//EN"
 "http://www.w3.org/TR/2001/REC-SVG-20010904/DTD/svg10.dtd">
<svg version="1.0" xmlns="http://www.w3.org/2000/svg"
 width="500.000000pt" height="500.000000pt" viewBox="0 0 500.000000 500.000000"
 preserveAspectRatio="xMidYMid meet">

<g transform="translate(0.000000,500.000000) scale(0.100000,-0.100000)"
fill="#0073e6" stroke="none">
<path d="M2585 4114 c-11 -3 -60 -14 -110 -26 -149 -34 -323 -122 -466 -236
-70 -56 -188 -196 -236 -280 -24 -41 -41 -77 -39 -79 2 -2 21 12 42 32 112
105 295 215 441 264 220 74 542 65 742 -21 96 -41 213 -102 249 -130 20 -16
53 -41 72 -56 140 -107 255 -273 354 -510 77 -183 72 -550 -9 -757 -8 -20 -8
-20 13 -1 12 11 22 23 22 27 0 5 20 39 44 77 25 38 53 89 62 113 9 24 21 49
25 54 9 12 44 155 59 240 18 106 14 282 -10 397 -31 153 -125 357 -214 465
-86 104 -227 230 -309 275 -115 63 -252 115 -382 144 -37 8 -322 15 -350 8z"/>
<path d="M1219 3604 c-54 -73 -72 -98 -113 -160 -21 -33 -46 -70 -56 -84 -9
-14 -23 -43 -31 -65 -7 -22 -24 -59 -36 -82 -13 -23 -23 -51 -23 -62 0 -11 -4
-22 -9 -25 -4 -3 -14 -27 -21 -53 -7 -27 -16 -52 -20 -58 -14 -19 -42 -171
-51 -280 -9 -97 -5 -344 6 -400 2 -11 7 -40 10 -65 3 -25 9 -60 14 -78 5 -18
10 -35 10 -37 3 -30 51 -155 101 -260 5 -11 16 -39 23 -62 34 -101 195 -321
339 -462 63 -62 227 -191 243 -191 3 0 28 -15 57 -33 73 -46 185 -102 233
-116 22 -7 49 -16 60 -21 28 -13 193 -59 235 -66 96 -16 264 -30 335 -28 108
3 216 14 235 24 8 4 35 10 60 13 94 11 316 83 400 130 19 10 53 29 75 40 22
12 49 30 59 40 11 9 25 17 32 17 7 0 26 11 42 25 17 14 34 25 39 25 5 0 31 23
58 50 27 28 54 50 60 50 11 0 207 204 214 223 2 6 8 16 12 22 38 46 79 107 79
115 0 6 3 10 8 10 7 0 57 94 105 200 30 65 89 231 84 236 -2 2 -54 -41 -116
-96 -62 -55 -119 -100 -126 -100 -7 0 -15 -4 -17 -9 -4 -12 -155 -109 -203
-131 -192 -86 -283 -120 -370 -137 -48 -9 -60 -11 -60 -13 0 -4 -52 -10 -174
-21 -206 -18 -434 2 -616 56 -69 20 -72 21 -180 69 -44 19 -91 40 -105 45 -14
6 -34 16 -45 23 -11 7 -42 26 -70 42 -27 17 -54 36 -58 43 -4 7 -12 13 -18 13
-14 0 -106 70 -166 126 -28 27 -64 61 -80 75 -36 32 -185 222 -198 252 -5 12
-12 24 -16 27 -27 22 -181 362 -194 429 -1 9 -8 34 -13 56 -6 22 -14 60 -17
85 -3 25 -10 61 -15 80 -5 19 -11 91 -15 160 -6 120 7 275 33 398 5 23 8 42 7
42 -1 0 -17 -21 -36 -46z"/>
<path d="M2370 3406 c-69 -16 -171 -51 -219 -76 -113 -59 -279 -220 -332 -322
-26 -50 -25 -51 19 -11 89 82 246 170 356 200 84 22 337 22 421 -1 120 -32
319 -147 385 -223 161 -183 232 -360 233 -583 0 -93 -21 -241 -40 -274 -3 -6
3 -2 13 9 29 29 88 141 112 212 33 96 45 195 39 318 -7 121 -21 178 -67 273
-16 34 -30 65 -30 67 0 22 -124 175 -180 222 -120 102 -224 152 -400 192 -60
14 -242 12 -310 -3z"/>
<path d="M2280 2891 c-137 -19 -297 -133 -369 -263 l-24 -43 50 47 c95 88 213
129 370 129 155 0 258 -41 381 -153 66 -60 141 -194 161 -286 19 -89 14 -190
-13 -282 -17 -56 42 47 68 120 52 144 45 282 -23 433 -46 101 -151 204 -262
256 -75 35 -94 40 -184 44 -55 3 -125 2 -155 -2z"/>
</g>
</svg>
